<svg width="103" height="24" viewBox="0 0 103 24" fill="none" xmlns="http://www.w3.org/2000/svg">
<path d="M15.9176 7.15625H12.1847C12.1165 6.6733 11.9773 6.24432 11.767 5.86932C11.5568 5.48864 11.2869 5.16477 10.9574 4.89773C10.6278 4.63068 10.2472 4.42614 9.81534 4.28409C9.3892 4.14205 8.92614 4.07102 8.42614 4.07102C7.52273 4.07102 6.7358 4.29545 6.06534 4.74432C5.39489 5.1875 4.875 5.83523 4.50568 6.6875C4.13636 7.53409 3.9517 8.5625 3.9517 9.77273C3.9517 11.017 4.13636 12.0625 4.50568 12.9091C4.88068 13.7557 5.40341 14.3949 6.07386 14.8267C6.74432 15.2585 7.51989 15.4744 8.40057 15.4744C8.89489 15.4744 9.35227 15.4091 9.77273 15.2784C10.1989 15.1477 10.5767 14.9574 10.9062 14.7074C11.2358 14.4517 11.5085 14.142 11.7244 13.7784C11.946 13.4148 12.0994 13 12.1847 12.5341L15.9176 12.5511C15.821 13.3523 15.5795 14.125 15.1932 14.8693C14.8125 15.608 14.2983 16.2699 13.6506 16.8551C13.0085 17.4347 12.2415 17.8949 11.3494 18.2358C10.4631 18.571 9.46023 18.7386 8.34091 18.7386C6.78409 18.7386 5.39205 18.3864 4.16477 17.6818C2.94318 16.9773 1.97727 15.9574 1.26705 14.6222C0.5625 13.2869 0.210227 11.6705 0.210227 9.77273C0.210227 7.86932 0.568182 6.25 1.28409 4.91477C2 3.57955 2.97159 2.5625 4.19886 1.86364C5.42614 1.15909 6.80682 0.806818 8.34091 0.806818C9.35227 0.806818 10.2898 0.948863 11.1534 1.23295C12.0227 1.51705 12.7926 1.93182 13.4631 2.47727C14.1335 3.01704 14.679 3.67898 15.0994 4.46307C15.5256 5.24716 15.7983 6.14489 15.9176 7.15625ZM22.2287 18.7472C21.3935 18.7472 20.6491 18.6023 19.9957 18.3125C19.3423 18.017 18.8253 17.5824 18.4446 17.0085C18.0696 16.429 17.8821 15.7074 17.8821 14.8438C17.8821 14.1165 18.0156 13.5057 18.2827 13.0114C18.5497 12.517 18.9134 12.1193 19.3736 11.8182C19.8338 11.517 20.3565 11.2898 20.9418 11.1364C21.5327 10.983 22.152 10.875 22.7997 10.8125C23.5611 10.733 24.1747 10.6591 24.6406 10.5909C25.1065 10.517 25.4446 10.4091 25.6548 10.267C25.8651 10.125 25.9702 9.91477 25.9702 9.63636V9.58523C25.9702 9.04545 25.7997 8.62784 25.4588 8.33239C25.1236 8.03693 24.6463 7.8892 24.027 7.8892C23.3736 7.8892 22.8537 8.03409 22.4673 8.32386C22.081 8.60795 21.8253 8.96591 21.7003 9.39773L18.3423 9.125C18.5128 8.32955 18.848 7.64205 19.348 7.0625C19.848 6.47727 20.4929 6.02841 21.2827 5.71591C22.0781 5.39773 22.9986 5.23864 24.044 5.23864C24.7713 5.23864 25.4673 5.32386 26.1321 5.49432C26.8026 5.66477 27.3963 5.92898 27.9134 6.28693C28.4361 6.64489 28.848 7.10511 29.1491 7.66761C29.4503 8.22443 29.6009 8.89205 29.6009 9.67045V18.5H26.1577V16.6847H26.0554C25.8452 17.0938 25.5639 17.4545 25.2116 17.767C24.8594 18.0739 24.4361 18.3153 23.9418 18.4915C23.4474 18.6619 22.8764 18.7472 22.2287 18.7472ZM23.2685 16.2415C23.8026 16.2415 24.2741 16.1364 24.6832 15.9261C25.0923 15.7102 25.4134 15.4205 25.6463 15.0568C25.8793 14.6932 25.9957 14.2812 25.9957 13.821V12.4318C25.8821 12.5057 25.7259 12.5739 25.527 12.6364C25.3338 12.6932 25.1151 12.7472 24.8707 12.7983C24.6264 12.8437 24.3821 12.8864 24.1378 12.9261C23.8935 12.9602 23.6719 12.9915 23.473 13.0199C23.0469 13.0824 22.6747 13.1818 22.3565 13.3182C22.0384 13.4545 21.7912 13.6392 21.6151 13.8722C21.4389 14.0994 21.3509 14.3835 21.3509 14.7244C21.3509 15.2188 21.5298 15.5966 21.8878 15.858C22.2514 16.1136 22.7116 16.2415 23.2685 16.2415ZM43.3097 9.14205L39.9858 9.34659C39.929 9.0625 39.8068 8.80682 39.6193 8.57955C39.4318 8.34659 39.1847 8.16193 38.8778 8.02557C38.5767 7.88352 38.2159 7.8125 37.7955 7.8125C37.233 7.8125 36.7585 7.93182 36.3722 8.17045C35.9858 8.40341 35.7926 8.71591 35.7926 9.10795C35.7926 9.42045 35.9176 9.68466 36.1676 9.90057C36.4176 10.1165 36.8466 10.2898 37.4545 10.4205L39.8239 10.8977C41.0966 11.1591 42.0455 11.5795 42.6705 12.1591C43.2955 12.7386 43.608 13.5 43.608 14.4432C43.608 15.3011 43.3551 16.054 42.8494 16.7017C42.3494 17.3494 41.6619 17.8551 40.7869 18.2188C39.9176 18.5767 38.9148 18.7557 37.7784 18.7557C36.0455 18.7557 34.6648 18.3949 33.6364 17.6733C32.6136 16.946 32.0142 15.9574 31.8381 14.7074L35.4091 14.5199C35.517 15.0483 35.7784 15.4517 36.1932 15.7301C36.608 16.0028 37.1392 16.1392 37.7869 16.1392C38.4233 16.1392 38.9347 16.017 39.321 15.7727C39.7131 15.5227 39.9119 15.2017 39.9176 14.8097C39.9119 14.4801 39.7727 14.2102 39.5 14C39.2273 13.7841 38.8068 13.6193 38.2386 13.5057L35.9716 13.054C34.6932 12.7983 33.7415 12.3551 33.1165 11.7244C32.4972 11.0937 32.1875 10.2898 32.1875 9.3125C32.1875 8.47159 32.4148 7.74716 32.8693 7.1392C33.3295 6.53125 33.9744 6.0625 34.804 5.73295C35.6392 5.40341 36.6165 5.23864 37.7358 5.23864C39.3892 5.23864 40.6903 5.58807 41.6392 6.28693C42.5938 6.9858 43.1506 7.9375 43.3097 9.14205ZM49.5249 10.9318V18.5H45.8942V1.04545H49.4226V7.71875H49.576C49.8714 6.94602 50.3487 6.34091 51.0078 5.90341C51.6669 5.46023 52.4936 5.23864 53.4879 5.23864C54.397 5.23864 55.1896 5.4375 55.8658 5.83523C56.5476 6.22727 57.076 6.79261 57.451 7.53125C57.8317 8.2642 58.0192 9.14205 58.0135 10.1648V18.5H54.3828V10.8125C54.3885 10.0057 54.1839 9.37784 53.7692 8.92898C53.3601 8.48011 52.7862 8.25568 52.0476 8.25568C51.5533 8.25568 51.1158 8.3608 50.7351 8.57102C50.3601 8.78125 50.0646 9.08807 49.8487 9.49148C49.6385 9.8892 49.5305 10.3693 49.5249 10.9318ZM60.9389 18.5V1.04545H67.9276C69.2116 1.04545 70.2827 1.2358 71.1406 1.61648C71.9986 1.99716 72.6435 2.52557 73.0753 3.2017C73.5071 3.87216 73.723 4.64489 73.723 5.51989C73.723 6.2017 73.5866 6.80114 73.3139 7.31818C73.0412 7.82955 72.6662 8.25 72.1889 8.57955C71.7173 8.90341 71.1776 9.13352 70.5696 9.26989V9.44034C71.2344 9.46875 71.8565 9.65625 72.4361 10.0028C73.0213 10.3494 73.4957 10.8352 73.8594 11.4602C74.223 12.0795 74.4048 12.8182 74.4048 13.6761C74.4048 14.6023 74.1747 15.429 73.7145 16.1562C73.2599 16.8778 72.5866 17.4489 71.6946 17.8693C70.8026 18.2898 69.7031 18.5 68.3963 18.5H60.9389ZM64.6293 15.483H67.6378C68.6662 15.483 69.4162 15.2869 69.8878 14.8949C70.3594 14.4972 70.5952 13.9687 70.5952 13.3097C70.5952 12.8267 70.4787 12.4006 70.2457 12.0312C70.0128 11.6619 69.6804 11.3722 69.2486 11.1619C68.8224 10.9517 68.3139 10.8466 67.723 10.8466H64.6293V15.483ZM64.6293 8.34943H67.3651C67.8707 8.34943 68.3196 8.26136 68.7116 8.08523C69.1094 7.90341 69.4219 7.64773 69.6491 7.31818C69.8821 6.98864 69.9986 6.59375 69.9986 6.13352C69.9986 5.50284 69.7741 4.99432 69.3253 4.60795C68.8821 4.22159 68.2514 4.02841 67.4332 4.02841H64.6293V8.34943ZM80.4709 18.7472C79.6357 18.7472 78.8913 18.6023 78.2379 18.3125C77.5845 18.017 77.0675 17.5824 76.6868 17.0085C76.3118 16.429 76.1243 15.7074 76.1243 14.8438C76.1243 14.1165 76.2578 13.5057 76.5249 13.0114C76.7919 12.517 77.1555 12.1193 77.6158 11.8182C78.076 11.517 78.5987 11.2898 79.1839 11.1364C79.7749 10.983 80.3942 10.875 81.0419 10.8125C81.8033 10.733 82.4169 10.6591 82.8828 10.5909C83.3487 10.517 83.6868 10.4091 83.897 10.267C84.1072 10.125 84.2124 9.91477 84.2124 9.63636V9.58523C84.2124 9.04545 84.0419 8.62784 83.701 8.33239C83.3658 8.03693 82.8885 7.8892 82.2692 7.8892C81.6158 7.8892 81.0959 8.03409 80.7095 8.32386C80.3232 8.60795 80.0675 8.96591 79.9425 9.39773L76.5845 9.125C76.755 8.32955 77.0902 7.64205 77.5902 7.0625C78.0902 6.47727 78.7351 6.02841 79.5249 5.71591C80.3203 5.39773 81.2408 5.23864 82.2862 5.23864C83.0135 5.23864 83.7095 5.32386 84.3743 5.49432C85.0447 5.66477 85.6385 5.92898 86.1555 6.28693C86.6783 6.64489 87.0902 7.10511 87.3913 7.66761C87.6925 8.22443 87.843 8.89205 87.843 9.67045V18.5H84.3999V16.6847H84.2976C84.0874 17.0938 83.8061 17.4545 83.4538 17.767C83.1016 18.0739 82.6783 18.3153 82.1839 18.4915C81.6896 18.6619 81.1186 18.7472 80.4709 18.7472ZM81.5107 16.2415C82.0447 16.2415 82.5163 16.1364 82.9254 15.9261C83.3345 15.7102 83.6555 15.4205 83.8885 15.0568C84.1214 14.6932 84.2379 14.2812 84.2379 13.821V12.4318C84.1243 12.5057 83.968 12.5739 83.7692 12.6364C83.576 12.6932 83.3572 12.7472 83.1129 12.7983C82.8686 12.8437 82.6243 12.8864 82.38 12.9261C82.1357 12.9602 81.9141 12.9915 81.7152 13.0199C81.2891 13.0824 80.9169 13.1818 80.5987 13.3182C80.2805 13.4545 80.0334 13.6392 79.8572 13.8722C79.6811 14.0994 79.593 14.3835 79.593 14.7244C79.593 15.2188 79.772 15.5966 80.13 15.858C80.4936 16.1136 80.9538 16.2415 81.5107 16.2415ZM96.5575 23.6818C95.3814 23.6818 94.3729 23.5199 93.532 23.196C92.6967 22.8778 92.032 22.4432 91.5376 21.892C91.0433 21.3409 90.7223 20.7216 90.5746 20.0341L93.9325 19.5824C94.0348 19.8438 94.1967 20.0881 94.4183 20.3153C94.6399 20.5426 94.9325 20.7244 95.2962 20.8608C95.6655 21.0028 96.1143 21.0739 96.6428 21.0739C97.4325 21.0739 98.0831 20.8807 98.5945 20.4943C99.1115 20.1136 99.37 19.4744 99.37 18.5767V16.1818H99.2166C99.0575 16.5455 98.8189 16.8892 98.5007 17.2131C98.1825 17.5369 97.7734 17.8011 97.2734 18.0057C96.7734 18.2102 96.1768 18.3125 95.4837 18.3125C94.5007 18.3125 93.6058 18.0852 92.799 17.6307C91.9979 17.1705 91.3587 16.4687 90.8814 15.5256C90.4098 14.5767 90.174 13.3778 90.174 11.929C90.174 10.446 90.4155 9.20739 90.8984 8.21307C91.3814 7.21875 92.0234 6.47443 92.8246 5.98011C93.6314 5.4858 94.5149 5.23864 95.4751 5.23864C96.2081 5.23864 96.8217 5.36364 97.3161 5.61364C97.8104 5.85795 98.2081 6.16477 98.5092 6.53409C98.8161 6.89773 99.0518 7.25568 99.2166 7.60795H99.353V5.40909H102.958V18.6278C102.958 19.7415 102.685 20.6733 102.14 21.4233C101.594 22.1733 100.839 22.7358 99.8729 23.1108C98.9126 23.4915 97.8075 23.6818 96.5575 23.6818ZM96.6342 15.5852C97.2195 15.5852 97.7138 15.4403 98.1172 15.1506C98.5263 14.8551 98.8388 14.4347 99.0547 13.8892C99.2763 13.3381 99.3871 12.679 99.3871 11.9119C99.3871 11.1449 99.2791 10.4801 99.0632 9.91761C98.8473 9.34943 98.5348 8.90909 98.1257 8.59659C97.7166 8.28409 97.2195 8.12784 96.6342 8.12784C96.0376 8.12784 95.5348 8.28977 95.1257 8.61364C94.7166 8.93182 94.407 9.375 94.1967 9.94318C93.9865 10.5114 93.8814 11.1676 93.8814 11.9119C93.8814 12.6676 93.9865 13.321 94.1967 13.8722C94.4126 14.4176 94.7223 14.8409 95.1257 15.142C95.5348 15.4375 96.0376 15.5852 96.6342 15.5852Z" fill="#243BBF"/>
</svg>
