<svg width="52" height="52" viewBox="0 0 52 52" fill="none" xmlns="http://www.w3.org/2000/svg">
<rect width="52" height="52" fill="#D4D9F2"/>
<path d="M32.823 25.128C33.767 24.482 34.4609 23.5318 34.789 22.436C34.889 22.572 34.983 22.713 35.071 22.859C35.675 23.858 36 25.063 36 26.499C36 28.706 35.167 30.249 34.32 31.238C33.9339 31.6884 33.4901 32.0858 33 32.42V34.249C33.0001 34.4789 32.955 34.7066 32.8671 34.919C32.7792 35.1314 32.6503 35.3245 32.4878 35.4871C32.3253 35.6497 32.1323 35.7787 31.9199 35.8667C31.7075 35.9547 31.4799 36 31.25 36H30C29.6022 36 29.2206 35.842 28.9393 35.5607C28.658 35.2794 28.5 34.8978 28.5 34.5H26.5C26.5 34.8978 26.342 35.2794 26.0607 35.5607C25.7794 35.842 25.3978 36 25 36H23.75C23.2859 36 22.8408 35.8156 22.5126 35.4874C22.1844 35.1592 22 34.7141 22 34.25V33.567C21.8433 33.5142 21.6886 33.4558 21.536 33.392C20.766 33.0754 20.0644 32.6129 19.47 32.03C18.841 31.3956 18.301 30.6787 17.865 29.899C17.8326 29.8344 17.7863 29.7778 17.7294 29.7331C17.6725 29.6885 17.6065 29.6571 17.536 29.641C17.1068 29.5695 16.7169 29.3481 16.4356 29.0161C16.1544 28.6841 16 28.2631 16 27.828V26.075C16 25.232 16.61 24.513 17.44 24.375C17.527 24.36 17.656 24.273 17.717 24.091C17.909 23.514 18.282 22.657 18.97 21.969C19.4658 21.483 20.0233 21.0641 20.628 20.723C20.764 20.645 20.89 20.578 21 20.523V17.67C21 16.732 22.13 16.347 22.74 16.954C23.07 17.283 23.55 17.721 24.081 18.088C24.611 18.454 25.118 18.695 25.535 18.748C25.0405 19.7282 24.8823 20.844 25.085 21.923C25.266 22.88 25.999 23.485 26.687 23.771L30.383 25.301C31.072 25.586 32.017 25.676 32.823 25.127V25.128ZM22 24.999C22.2652 24.999 22.5196 24.8936 22.7071 24.7061C22.8946 24.5186 23 24.2642 23 23.999C23 23.7338 22.8946 23.4794 22.7071 23.2919C22.5196 23.1044 22.2652 22.999 22 22.999C21.7348 22.999 21.4804 23.1044 21.2929 23.2919C21.1054 23.4794 21 23.7338 21 23.999C21 24.2642 21.1054 24.5186 21.2929 24.7061C21.4804 24.8936 21.7348 24.999 22 24.999ZM32.259 24.302C32.7229 23.9843 33.1148 23.5725 33.409 23.0933C33.7033 22.6142 33.8934 22.0785 33.967 21.521C34.0415 20.9477 33.9909 20.3651 33.8186 19.8133C33.6463 19.2615 33.3564 18.7536 32.969 18.3246C32.5815 17.8956 32.1057 17.5556 31.5743 17.3282C31.0428 17.1007 30.4684 16.9911 29.8905 17.007C29.3127 17.0229 28.7451 17.1638 28.2269 17.4201C27.7088 17.6764 27.2523 18.042 26.889 18.4916C26.5257 18.9413 26.2642 19.4643 26.1225 20.0248C25.9807 20.5852 25.9621 21.1697 26.068 21.738C26.093 21.868 26.137 21.99 26.198 22.103C26.248 22.196 26.308 22.283 26.378 22.363C26.56 22.573 26.804 22.737 27.07 22.848L30.766 24.378C31.256 24.581 31.821 24.601 32.259 24.302Z" fill="#243BBF"/>
</svg>
