<svg width="48" height="50" viewBox="0 0 48 50" fill="none" xmlns="http://www.w3.org/2000/svg">
<rect width="48" height="50" fill="#F7A31C"/>
<path d="M30.81 19.25H32.17C31.98 18.98 31.78 18.73 31.57 18.48L30.81 19.25Z" fill="white"/>
<path d="M30.52 17.4199C30.27 17.2099 30.02 17.0099 29.75 16.8199V18.1799L30.52 17.4199Z" fill="white"/>
<circle cx="24" cy="25" r="6" fill="white"/>
<path d="M31.58 18.4799L34.53 15.5299C34.82 15.2399 34.82 14.7599 34.53 14.4699C34.24 14.1799 33.76 14.1799 33.47 14.4699L30.52 17.4199C30.9 17.7499 31.25 18.1099 31.58 18.4799Z" fill="white"/>
<path d="M29.75 16C29.75 15.59 29.41 15.25 29 15.25C28.6 15.25 28.28 15.57 28.26 15.96C28.78 16.21 29.28 16.49 29.75 16.82V16Z" fill="white"/>
<path d="M33.75 20C33.75 19.59 33.41 19.25 33 19.25H32.17C32.5 19.72 32.79 20.22 33.03 20.74C33.43 20.72 33.75 20.4 33.75 20Z" fill="white"/>
<path d="M24.75 27.75H25.05C25.44 27.75 25.75 27.4 25.75 26.97C25.75 26.43 25.6 26.35 25.26 26.23L24.75 26.05V27.75Z" fill="#F7A31C"/>
<path d="M33.04 20.74C33.03 20.74 33.02 20.75 33 20.75H29C28.9 20.75 28.81 20.73 28.71 20.69C28.53 20.61 28.38 20.47 28.3 20.28C28.27 20.19 28.25 20.1 28.25 20V16C28.25 15.99 28.26 15.98 28.26 15.96C26.96 15.35 25.52 15 24 15C18.48 15 14 19.48 14 25C14 30.52 18.48 35 24 35C29.52 35 34 30.52 34 25C34 23.48 33.65 22.04 33.04 20.74ZM25.75 24.82C26.39 25.04 27.25 25.51 27.25 26.98C27.25 28.23 26.26 29.26 25.05 29.26H24.75V29.51C24.75 29.92 24.41 30.26 24 30.26C23.59 30.26 23.25 29.92 23.25 29.51V29.26H23.17C21.84 29.26 20.75 28.14 20.75 26.76C20.75 26.34 21.09 26 21.5 26C21.91 26 22.25 26.34 22.25 26.75C22.25 27.3 22.66 27.75 23.17 27.75H23.25V25.53L22.25 25.18C21.61 24.96 20.75 24.49 20.75 23.02C20.75 21.77 21.74 20.74 22.95 20.74H23.25V20.5C23.25 20.09 23.59 19.75 24 19.75C24.41 19.75 24.75 20.09 24.75 20.5V20.75H24.83C26.16 20.75 27.25 21.87 27.25 23.25C27.25 23.66 26.91 24 26.5 24C26.09 24 25.75 23.66 25.75 23.25C25.75 22.7 25.34 22.25 24.83 22.25H24.75V24.47L25.75 24.82Z" fill="white"/>
<path d="M22.25 23.03C22.25 23.57 22.4 23.65 22.74 23.77L23.25 23.95V22.25H22.95C22.57 22.25 22.25 22.6 22.25 23.03Z" fill="#F7A31C"/>
<path d="M21.41 29C21.19 29 21.0333 28.9533 20.94 28.86C20.8533 28.7667 20.81 28.6233 20.81 28.43V27.33H20.7C20.4867 27.33 20.34 27.2867 20.26 27.2C20.1867 27.1067 20.15 26.96 20.15 26.76V26.55C20.15 26.35 20.1867 26.2067 20.26 26.12C20.34 26.0267 20.4867 25.98 20.7 25.98H20.81V25.47H20.7C20.4867 25.47 20.34 25.4267 20.26 25.34C20.1867 25.2467 20.15 25.1 20.15 24.9V24.69C20.15 24.49 20.1867 24.3467 20.26 24.26C20.34 24.1667 20.4867 24.12 20.7 24.12H20.81V22.76C20.81 22.5667 20.8533 22.4267 20.94 22.34C21.0333 22.2467 21.1933 22.2 21.42 22.2H22.37C22.5167 22.2 22.63 22.22 22.71 22.26C22.79 22.2933 22.86 22.3633 22.92 22.47L24.23 24.86V22.77C24.23 22.5767 24.2733 22.4333 24.36 22.34C24.4533 22.2467 24.61 22.2 24.83 22.2H26.02C26.2467 22.2 26.4033 22.2467 26.49 22.34C26.5833 22.4267 26.63 22.57 26.63 22.77V24.12H26.74C26.9533 24.12 27.0967 24.1667 27.17 24.26C27.25 24.3467 27.29 24.49 27.29 24.69V24.9C27.29 25.1 27.25 25.2467 27.17 25.34C27.0967 25.4267 26.9533 25.47 26.74 25.47H26.63V25.98H26.74C26.9533 25.98 27.0967 26.0267 27.17 26.12C27.25 26.2067 27.29 26.35 27.29 26.55V26.76C27.29 26.96 27.25 27.1067 27.17 27.2C27.0967 27.2867 26.9533 27.33 26.74 27.33H26.63V28.44C26.63 28.6333 26.5833 28.7767 26.49 28.87C26.4033 28.9567 26.2467 29 26.02 29H25.07C24.9233 29 24.81 28.9833 24.73 28.95C24.65 28.91 24.58 28.8367 24.52 28.73L23.21 26.34V28.44C23.21 28.6333 23.1633 28.7767 23.07 28.87C22.9833 28.9567 22.8267 29 22.6 29H21.41Z" fill="#F7A31C"/>
</svg>
