<svg width="25" height="32" viewBox="0 0 25 32" fill="none" xmlns="http://www.w3.org/2000/svg">
<path fill-rule="evenodd" clip-rule="evenodd" d="M0.49068 0.479919C0.179091 0.858084 0 1.44013 0 2.19646V29.0988C0 29.8551 0.179091 30.4372 0.502328 30.8022L0.586778 30.8828L13.9356 15.8088V15.4701L0.57513 0.399353L0.49068 0.479919V0.479919Z" fill="#CCCCCC"/>
<path fill-rule="evenodd" clip-rule="evenodd" d="M18.3765 20.8531L13.924 15.8236V15.4717L18.3779 10.4421L18.474 10.5096L23.742 13.89C25.2504 14.8502 25.2504 16.4319 23.742 17.4053L18.474 20.7857C18.4726 20.7857 18.3765 20.8531 18.3765 20.8531V20.8531Z" fill="white"/>
<path fill-rule="evenodd" clip-rule="evenodd" d="M18.4733 20.7857L13.9247 15.6476L0.491455 30.817C0.982135 31.4122 1.8077 31.4796 2.73082 30.8975L18.4733 20.7857Z" fill="#EFEFEF"/>
<path fill-rule="evenodd" clip-rule="evenodd" d="M18.4733 10.5111L2.73082 0.412547C1.80916 -0.182648 0.982135 -0.102083 0.491455 0.493112L13.9233 15.6476L18.4733 10.5111Z" fill="#EFEFEF"/>
<path opacity="0.2" fill-rule="evenodd" clip-rule="evenodd" d="M18.3766 20.6772L2.74181 30.7084C1.86819 31.2757 1.08922 31.2362 0.586891 30.7216L0.502441 30.8169L0.586891 30.8975C1.08922 31.4105 1.86819 31.4516 2.74181 30.8843L18.4844 20.7857L18.3766 20.6772V20.6772Z" fill="black"/>
<path opacity="0.12" fill-rule="evenodd" clip-rule="evenodd" d="M23.7404 17.2293L18.3647 20.6772L18.4608 20.7858L23.7287 17.4053C24.483 16.9186 24.8542 16.2839 24.8542 15.6476C24.8062 16.2296 24.4233 16.7837 23.7404 17.2293V17.2293Z" fill="black"/>
<path opacity="0.25" fill-rule="evenodd" clip-rule="evenodd" d="M2.73005 0.588485L23.7405 14.0676C24.4234 14.5 24.8063 15.0672 24.866 15.6493C24.866 15.0146 24.4947 14.3783 23.7405 13.8917L2.73005 0.412556C1.22161 -0.560806 0 0.249781 0 2.19651V2.37243C0 0.42571 1.22161 -0.371724 2.73005 0.588485Z" fill="white"/>
</svg>
