<svg width="37" height="37" viewBox="0 0 37 37" fill="none" xmlns="http://www.w3.org/2000/svg">
<path d="M34.6719 0.921875H2.32812C1.55029 0.921875 0.921875 1.55029 0.921875 2.32812V34.6719C0.921875 35.4497 1.55029 36.0781 2.32812 36.0781H34.6719C35.4497 36.0781 36.0781 35.4497 36.0781 34.6719V2.32812C36.0781 1.55029 35.4497 0.921875 34.6719 0.921875ZM27.9614 13.6528C27.9746 13.8594 27.9746 14.0747 27.9746 14.2856C27.9746 20.7368 23.0615 28.168 14.0835 28.168C11.3149 28.168 8.74854 27.3638 6.58643 25.9795C6.98193 26.0234 7.35986 26.041 7.76416 26.041C10.0493 26.041 12.1499 25.2676 13.8242 23.958C11.6797 23.9141 9.87793 22.5078 9.26269 20.5742C10.0142 20.6841 10.6909 20.6841 11.4644 20.4863C10.3601 20.262 9.36761 19.6623 8.65544 18.7891C7.94327 17.9159 7.55536 16.8231 7.55762 15.6963V15.6348C8.20361 15.9995 8.96387 16.2236 9.75928 16.2544C9.09062 15.8088 8.54225 15.205 8.16279 14.4967C7.78334 13.7884 7.58453 12.9974 7.58398 12.1938C7.58398 11.2842 7.82129 10.4536 8.24756 9.73291C9.4732 11.2417 11.0026 12.4757 12.7364 13.3547C14.4702 14.2337 16.3696 14.7381 18.311 14.835C17.6211 11.5171 20.0996 8.83203 23.0791 8.83203C24.4854 8.83203 25.751 9.4209 26.6431 10.3701C27.7461 10.1636 28.8008 9.75049 29.7412 9.19678C29.3765 10.3262 28.6118 11.2798 27.5967 11.8818C28.5811 11.7764 29.5303 11.5039 30.4092 11.1216C29.7456 12.0972 28.915 12.9629 27.9614 13.6528Z" fill="white"/>
</svg>
